<svg xmlns="http://www.w3.org/2000/svg" xmlns:xlink="http://www.w3.org/1999/xlink" width="1800" zoomAndPan="magnify" viewBox="0 0 1350 374.999991" height="500" preserveAspectRatio="xMidYMid meet" version="1.0"><defs><g/><clipPath id="209518e963"><path d="M 24 63.691406 L 158 63.691406 L 158 318 L 24 318 Z M 24 63.691406 " clip-rule="nonzero"/></clipPath><clipPath id="91dce03f48"><path d="M 157 63.691406 L 291 63.691406 L 291 318 L 157 318 Z M 157 63.691406 " clip-rule="nonzero"/></clipPath><clipPath id="0b687ef2f2"><path d="M 74 265 L 158 265 L 158 321.691406 L 74 321.691406 Z M 74 265 " clip-rule="nonzero"/></clipPath><clipPath id="afba640d46"><path d="M 157 265 L 241 265 L 241 321.691406 L 157 321.691406 Z M 157 265 " clip-rule="nonzero"/></clipPath></defs><g fill="#ffffff" fill-opacity="1"><g transform="translate(330.887172, 252.060174)"><g><path d="M 74.8125 -25.484375 C 79.113281 -25.484375 83.285156 -26.132812 87.328125 -27.4375 C 91.378906 -28.738281 94.359375 -29.988281 96.265625 -31.1875 L 99.109375 -33.140625 L 111.109375 -9.140625 C 110.703125 -8.847656 110.148438 -8.453125 109.453125 -7.953125 C 108.753906 -7.453125 107.128906 -6.523438 104.578125 -5.171875 C 102.035156 -3.828125 99.3125 -2.65625 96.40625 -1.65625 C 93.507812 -0.65625 89.710938 0.242188 85.015625 1.046875 C 80.316406 1.847656 75.46875 2.25 70.46875 2.25 C 58.976562 2.25 48.082031 -0.570312 37.78125 -6.21875 C 27.488281 -11.863281 19.191406 -19.632812 12.890625 -29.53125 C 6.597656 -39.425781 3.453125 -50.125 3.453125 -61.625 C 3.453125 -70.320312 5.300781 -78.664062 9 -86.65625 C 12.695312 -94.65625 17.617188 -101.503906 23.765625 -107.203125 C 29.910156 -112.898438 37.082031 -117.445312 45.28125 -120.84375 C 53.476562 -124.25 61.875 -125.953125 70.46875 -125.953125 C 78.46875 -125.953125 85.835938 -125 92.578125 -123.09375 C 99.328125 -121.195312 104.101562 -119.300781 106.90625 -117.40625 L 111.109375 -114.546875 L 99.109375 -90.5625 C 98.410156 -91.164062 97.359375 -91.890625 95.953125 -92.734375 C 94.554688 -93.585938 91.757812 -94.710938 87.5625 -96.109375 C 83.363281 -97.503906 79.113281 -98.203125 74.8125 -98.203125 C 68.019531 -98.203125 61.925781 -97.101562 56.53125 -94.90625 C 51.132812 -92.707031 46.859375 -89.804688 43.703125 -86.203125 C 40.554688 -82.609375 38.15625 -78.738281 36.5 -74.59375 C 34.851562 -70.445312 34.03125 -66.222656 34.03125 -61.921875 C 34.03125 -52.523438 37.550781 -44.101562 44.59375 -36.65625 C 51.644531 -29.207031 61.71875 -25.484375 74.8125 -25.484375 Z M 74.8125 -25.484375 "/></g></g></g><g fill="#ffffff" fill-opacity="1"><g transform="translate(443.724572, 252.060174)"><g><path d="M 9 0 L 9 -128.953125 L 35.53125 -128.953125 L 35.53125 0 Z M 9 0 "/></g></g></g><g fill="#ffffff" fill-opacity="1"><g transform="translate(488.230219, 252.060174)"><g><path d="M 16.265625 -9.140625 C 7.722656 -16.742188 3.453125 -26.488281 3.453125 -38.375 C 3.453125 -50.269531 7.898438 -60.039062 16.796875 -67.6875 C 25.691406 -75.34375 36.6875 -79.171875 49.78125 -79.171875 C 62.675781 -79.171875 73.546875 -75.320312 82.390625 -67.625 C 91.234375 -59.925781 95.65625 -50.175781 95.65625 -38.375 C 95.65625 -26.582031 91.332031 -16.863281 82.6875 -9.21875 C 74.039062 -1.570312 63.070312 2.25 49.78125 2.25 C 35.988281 2.25 24.816406 -1.546875 16.265625 -9.140625 Z M 36.8125 -51.421875 C 33.363281 -48.023438 31.640625 -43.675781 31.640625 -38.375 C 31.640625 -33.082031 33.285156 -28.757812 36.578125 -25.40625 C 39.878906 -22.0625 44.226562 -20.390625 49.625 -20.390625 C 54.820312 -20.390625 59.09375 -22.085938 62.4375 -25.484375 C 65.789062 -28.890625 67.46875 -33.191406 67.46875 -38.390625 C 67.46875 -43.679688 65.742188 -48.023438 62.296875 -51.421875 C 58.847656 -54.828125 54.625 -56.53125 49.625 -56.53125 C 44.53125 -56.53125 40.257812 -54.828125 36.8125 -51.421875 Z M 36.8125 -51.421875 "/></g></g></g><g fill="#ffffff" fill-opacity="1"><g transform="translate(587.281429, 252.060174)"><g><path d="M 34.03125 -76.921875 L 34.03125 -40.328125 C 34.03125 -32.734375 35.179688 -27.335938 37.484375 -24.140625 C 39.785156 -20.941406 43.679688 -19.34375 49.171875 -19.34375 C 54.671875 -19.34375 58.570312 -20.941406 60.875 -24.140625 C 63.175781 -27.335938 64.328125 -32.734375 64.328125 -40.328125 L 64.328125 -76.921875 L 90.859375 -76.921875 L 90.859375 -33.890625 C 90.859375 -21.085938 87.535156 -11.863281 80.890625 -6.21875 C 74.242188 -0.570312 63.671875 2.25 49.171875 2.25 C 34.679688 2.25 24.113281 -0.570312 17.46875 -6.21875 C 10.820312 -11.863281 7.5 -21.085938 7.5 -33.890625 L 7.5 -76.921875 Z M 34.03125 -76.921875 "/></g></g></g><g fill="#ffffff" fill-opacity="1"><g transform="translate(685.583403, 252.060174)"><g><path d="M 14.25 -9.515625 C 7.050781 -17.367188 3.453125 -26.992188 3.453125 -38.390625 C 3.453125 -49.785156 7.050781 -59.429688 14.25 -67.328125 C 21.445312 -75.222656 30.59375 -79.171875 41.6875 -79.171875 C 51.875 -79.171875 60.269531 -75.972656 66.875 -69.578125 L 66.875 -128.953125 L 93.40625 -128.953125 L 93.40625 0 L 67.171875 0 L 67.171875 -8.703125 L 66.875 -8.703125 C 60.269531 -1.398438 51.875 2.25 41.6875 2.25 C 30.59375 2.25 21.445312 -1.671875 14.25 -9.515625 Z M 36.8125 -51.421875 C 33.363281 -48.023438 31.640625 -43.675781 31.640625 -38.375 C 31.640625 -33.082031 33.285156 -28.757812 36.578125 -25.40625 C 39.878906 -22.0625 44.226562 -20.390625 49.625 -20.390625 C 54.820312 -20.390625 59.09375 -22.085938 62.4375 -25.484375 C 65.789062 -28.890625 67.46875 -33.191406 67.46875 -38.390625 C 67.46875 -43.679688 65.742188 -48.023438 62.296875 -51.421875 C 58.847656 -54.828125 54.625 -56.53125 49.625 -56.53125 C 44.53125 -56.53125 40.257812 -54.828125 36.8125 -51.421875 Z M 36.8125 -51.421875 "/></g></g></g><g fill="#ffffff" fill-opacity="1"><g transform="translate(787.93131, 252.060174)"><g><path d="M 9 -123.703125 L 44.828125 -123.703125 C 62.023438 -123.703125 76.71875 -117.828125 88.90625 -106.078125 C 101.101562 -94.335938 107.203125 -79.617188 107.203125 -61.921875 C 107.203125 -44.128906 101.128906 -29.359375 88.984375 -17.609375 C 76.835938 -5.867188 62.117188 0 44.828125 0 L 9 0 Z M 37.1875 -25.1875 L 41.53125 -25.1875 C 51.820312 -25.1875 60.242188 -28.660156 66.796875 -35.609375 C 73.347656 -42.554688 76.671875 -51.28125 76.765625 -61.78125 C 76.765625 -72.269531 73.488281 -81.015625 66.9375 -88.015625 C 60.394531 -95.015625 51.925781 -98.515625 41.53125 -98.515625 L 37.1875 -98.515625 Z M 37.1875 -25.1875 "/></g></g></g><g fill="#ffffff" fill-opacity="1"><g transform="translate(898.521004, 252.060174)"><g><path d="M 14.25 -9.515625 C 7.050781 -17.367188 3.453125 -26.992188 3.453125 -38.390625 C 3.453125 -49.785156 7.050781 -59.429688 14.25 -67.328125 C 21.445312 -75.222656 30.59375 -79.171875 41.6875 -79.171875 C 51.875 -79.171875 60.269531 -75.972656 66.875 -69.578125 L 66.875 -76.921875 L 93.40625 -76.921875 L 93.40625 0 L 67.171875 0 L 67.171875 -8.703125 L 66.875 -8.703125 C 60.269531 -1.398438 51.875 2.25 41.6875 2.25 C 30.59375 2.25 21.445312 -1.671875 14.25 -9.515625 Z M 36.8125 -51.421875 C 33.363281 -48.023438 31.640625 -43.675781 31.640625 -38.375 C 31.640625 -33.082031 33.285156 -28.757812 36.578125 -25.40625 C 39.878906 -22.0625 44.226562 -20.390625 49.625 -20.390625 C 54.820312 -20.390625 59.09375 -22.085938 62.4375 -25.484375 C 65.789062 -28.890625 67.46875 -33.191406 67.46875 -38.390625 C 67.46875 -43.679688 65.742188 -48.023438 62.296875 -51.421875 C 58.847656 -54.828125 54.625 -56.53125 49.625 -56.53125 C 44.53125 -56.53125 40.257812 -54.828125 36.8125 -51.421875 Z M 36.8125 -51.421875 "/></g></g></g><g fill="#ffffff" fill-opacity="1"><g transform="translate(1000.868911, 252.060174)"><g><path d="M 13.5 -76.921875 L 13.5 -105.5625 L 40.03125 -105.5625 L 40.03125 -76.921875 L 56.21875 -76.921875 L 56.21875 -56.671875 L 40.03125 -56.671875 L 40.03125 -32.234375 C 40.03125 -25.140625 42.03125 -21.59375 46.03125 -21.59375 C 47.03125 -21.59375 48.078125 -21.789062 49.171875 -22.1875 C 50.273438 -22.59375 51.128906 -22.992188 51.734375 -23.390625 L 52.625 -23.984375 L 59.21875 -2.546875 C 53.519531 0.648438 47.023438 2.25 39.734375 2.25 C 34.734375 2.25 30.429688 1.375 26.828125 -0.375 C 23.234375 -2.125 20.507812 -4.472656 18.65625 -7.421875 C 16.8125 -10.367188 15.488281 -13.46875 14.6875 -16.71875 C 13.894531 -19.96875 13.5 -23.441406 13.5 -27.140625 L 13.5 -56.671875 L 2.40625 -56.671875 L 2.40625 -76.921875 Z M 13.5 -76.921875 "/></g></g></g><g fill="#ffffff" fill-opacity="1"><g transform="translate(1060.059914, 252.060174)"><g><path d="M 83.359375 -76.921875 L 45.28125 -20.234375 L 80.359375 -20.234375 L 80.359375 0 L 0.75 0 L 38.828125 -56.671875 L 7.046875 -56.671875 L 7.046875 -76.921875 Z M 83.359375 -76.921875 "/></g></g></g><g fill="#ffffff" fill-opacity="1"><g transform="translate(1144.126014, 252.060174)"><g><path d="M 86.8125 -34.78125 L 31.03125 -34.78125 C 31.03125 -29.382812 32.78125 -25.382812 36.28125 -22.78125 C 39.78125 -20.1875 43.582031 -18.890625 47.6875 -18.890625 C 51.976562 -18.890625 55.375 -19.460938 57.875 -20.609375 C 60.375 -21.765625 63.222656 -24.039062 66.421875 -27.4375 L 85.609375 -17.84375 C 77.617188 -4.445312 64.328125 2.25 45.734375 2.25 C 34.140625 2.25 24.191406 -1.722656 15.890625 -9.671875 C 7.597656 -17.617188 3.453125 -27.1875 3.453125 -38.375 C 3.453125 -49.570312 7.597656 -59.171875 15.890625 -67.171875 C 24.191406 -75.171875 34.140625 -79.171875 45.734375 -79.171875 C 57.921875 -79.171875 67.835938 -75.644531 75.484375 -68.59375 C 83.140625 -61.550781 86.96875 -51.484375 86.96875 -38.390625 C 86.96875 -36.585938 86.914062 -35.382812 86.8125 -34.78125 Z M 31.78125 -49.484375 L 61.03125 -49.484375 C 60.425781 -53.484375 58.847656 -56.554688 56.296875 -58.703125 C 53.753906 -60.847656 50.484375 -61.921875 46.484375 -61.921875 C 42.085938 -61.921875 38.585938 -60.769531 35.984375 -58.46875 C 33.390625 -56.175781 31.988281 -53.179688 31.78125 -49.484375 Z M 31.78125 -49.484375 "/></g></g></g><g fill="#ffffff" fill-opacity="1"><g transform="translate(1234.485852, 252.060174)"><g><path d="M 9 0 L 9 -76.921875 L 35.53125 -76.921875 L 35.53125 -68.828125 L 35.828125 -68.828125 C 42.734375 -75.722656 50.082031 -79.171875 57.875 -79.171875 C 61.675781 -79.171875 65.445312 -78.671875 69.1875 -77.671875 C 72.9375 -76.671875 76.535156 -75.117188 79.984375 -73.015625 C 83.441406 -70.921875 86.242188 -67.945312 88.390625 -64.09375 C 90.535156 -60.25 91.609375 -55.773438 91.609375 -50.671875 L 91.609375 0 L 65.078125 0 L 65.078125 -43.484375 C 65.078125 -47.484375 63.800781 -50.976562 61.25 -53.96875 C 58.695312 -56.96875 55.375 -58.46875 51.28125 -58.46875 C 47.28125 -58.46875 43.65625 -56.914062 40.40625 -53.8125 C 37.15625 -50.71875 35.53125 -47.273438 35.53125 -43.484375 L 35.53125 0 Z M 9 0 "/></g></g></g><path fill="#fcfefe" d="M 134.023438 160.300781 L 137.316406 160.300781 L 138.894531 160.824219 L 140.082031 161.871094 L 141.132812 163.441406 L 141.660156 165.363281 L 141.792969 166.410156 L 141.792969 177.226562 L 141.527344 178.800781 L 140.871094 180.195312 L 139.683594 181.589844 L 137.972656 182.289062 L 136.65625 182.636719 L 133.757812 182.636719 L 132.179688 181.941406 L 130.992188 180.71875 L 130.203125 179.496094 L 129.675781 177.75 L 129.414062 176.007812 L 129.28125 172.691406 L 129.28125 168.675781 L 129.546875 165.886719 L 130.070312 164.140625 L 130.863281 162.570312 L 131.914062 161.347656 L 133.363281 160.476562 Z M 134.023438 160.300781 " fill-opacity="1" fill-rule="nonzero"/><path fill="#fcfefe" d="M 177.214844 160.300781 L 180.507812 160.300781 L 182.089844 160.824219 L 183.273438 161.871094 L 184.328125 163.441406 L 184.855469 165.363281 L 184.988281 166.410156 L 184.988281 177.226562 L 184.722656 178.800781 L 184.066406 180.195312 L 182.878906 181.589844 L 181.167969 182.289062 L 179.851562 182.636719 L 176.953125 182.636719 L 175.375 181.941406 L 174.1875 180.71875 L 173.398438 179.496094 L 172.871094 177.75 L 172.609375 176.007812 L 172.476562 172.691406 L 172.476562 168.675781 L 172.738281 165.886719 L 173.265625 164.140625 L 174.054688 162.570312 L 175.109375 161.347656 L 176.558594 160.476562 Z M 177.214844 160.300781 " fill-opacity="1" fill-rule="nonzero"/><path fill="#00feef" d="M 157.253906 124.601562 L 157.253906 102.898438 L 129.28125 133.914062 L 157.253906 144.105469 Z M 157.253906 124.601562 " fill-opacity="1" fill-rule="nonzero"/><path fill="#00feef" d="M 157.253906 124.601562 L 157.253906 102.898438 L 129.28125 133.914062 L 157.253906 144.105469 Z M 157.253906 124.601562 " fill-opacity="1" fill-rule="nonzero"/><path fill="#00feef" d="M 157.113281 124.601562 L 157.113281 102.898438 L 185.085938 133.914062 L 157.113281 144.105469 Z M 157.113281 124.601562 " fill-opacity="1" fill-rule="nonzero"/><path fill="#00feef" d="M 157.113281 124.601562 L 157.113281 102.898438 L 185.085938 133.914062 L 157.113281 144.105469 Z M 157.113281 124.601562 " fill-opacity="1" fill-rule="nonzero"/><g clip-path="url(#209518e963)"><path fill="#ffffff" d="M 96.929688 187.171875 C 62.808594 214.394531 38.363281 199.25 29.199219 213.074219 C 27.007812 216.375 24.4375 224.230469 24.5625 237.226562 C 26.035156 258.726562 35.429688 285.976562 36.78125 287.207031 C 52.796875 324.203125 72.496094 338.582031 43.523438 264.730469 C 43.113281 262.625 66.269531 276.429688 98.625 264.03125 C 113.269531 258.417969 148.878906 234.714844 157.410156 220.054688 C 157.410156 199.53125 157.410156 211.398438 157.410156 200.507812 C 154.355469 205.535156 144.164062 218.433594 132.335938 227.175781 C 100.414062 250.769531 88.828125 250.769531 88.828125 250.769531 C 69.746094 255.984375 33.253906 256.074219 36.675781 234.714844 C 40.101562 213.351562 45.738281 230.804688 88.828125 208.046875 C 103.15625 200.480469 108.671875 192.550781 108.671875 192.550781 L 106.160156 136.984375 L 157.402344 81.28125 L 157.402344 63.691406 L 93.601562 133.496094 Z M 96.929688 187.171875 " fill-opacity="1" fill-rule="nonzero"/></g><g clip-path="url(#91dce03f48)"><path fill="#ffffff" d="M 217.632812 187.171875 C 251.75 214.394531 276.199219 199.25 285.363281 213.074219 C 287.554688 216.375 290.125 224.230469 290 237.226562 C 288.523438 258.726562 279.132812 285.976562 277.777344 287.207031 C 261.765625 324.203125 242.0625 338.582031 271.035156 264.730469 C 271.445312 262.625 248.289062 276.429688 215.9375 264.03125 C 201.292969 258.417969 165.683594 234.714844 157.152344 220.054688 C 157.152344 199.53125 157.152344 211.398438 157.152344 200.507812 C 160.207031 205.535156 170.398438 218.433594 182.222656 227.175781 C 214.144531 250.769531 225.734375 250.769531 225.734375 250.769531 C 244.816406 255.984375 281.308594 256.074219 277.882812 234.714844 C 274.460938 213.351562 268.824219 230.804688 225.734375 208.046875 C 211.40625 200.480469 205.890625 192.550781 205.890625 192.550781 L 208.402344 136.984375 L 157.160156 81.28125 L 157.160156 63.691406 L 220.960938 133.496094 Z M 217.632812 187.171875 " fill-opacity="1" fill-rule="nonzero"/></g><g clip-path="url(#0b687ef2f2)"><path fill="#1ffcfd" d="M 74.34375 304.144531 C 74.34375 304.144531 89.933594 307.066406 114.644531 296.203125 C 139.355469 285.34375 157.507812 265.847656 157.507812 265.847656 L 157.507812 284.230469 C 157.507812 284.230469 136.886719 301.882812 122.058594 309.714844 C 104.429688 319.023438 76.53125 321.410156 76.53125 321.410156 C 79.097656 319.460938 74.34375 304.144531 74.34375 304.144531 Z M 74.34375 304.144531 " fill-opacity="1" fill-rule="nonzero"/></g><g clip-path="url(#afba640d46)"><path fill="#1ffcfd" d="M 240.394531 304.144531 C 240.394531 304.144531 224.808594 307.066406 200.097656 296.203125 C 175.382812 285.34375 157.230469 265.847656 157.230469 265.847656 L 157.230469 284.230469 C 157.230469 284.230469 177.855469 301.882812 192.683594 309.714844 C 210.3125 319.023438 238.210938 321.410156 238.210938 321.410156 C 235.644531 319.460938 240.394531 304.144531 240.394531 304.144531 Z M 240.394531 304.144531 " fill-opacity="1" fill-rule="nonzero"/></g></svg>